<svg width="16" height="16" viewBox="0 0 16 16" fill="none" xmlns="http://www.w3.org/2000/svg">
<path d="M12 9C11.4477 9 11 8.55228 11 8C11 7.44772 11.4477 7 12 7C12.5523 7 13 7.44772 13 8C13 8.55229 12.5523 9 12 9Z" fill="#606063"/>
<path d="M8 9C7.44772 9 7 8.55228 7 8C7 7.44772 7.44772 7 8 7C8.55228 7 9 7.44772 9 8C9 8.55228 8.55228 9 8 9Z" fill="#606063"/>
<path d="M4 9C3.44771 9 3 8.55228 3 8C3 7.44771 3.44771 7 4 7C4.55228 7 5 7.44771 5 8C5 8.55228 4.55228 9 4 9Z" fill="#606063"/>
<rect x="0.5" y="0.5" width="15" height="15" rx="7.5" stroke="#636366"/>
</svg>
