<svg width="14" height="12" viewBox="0 0 14 12" fill="none" xmlns="http://www.w3.org/2000/svg">
<path d="M3.09696 11.8962C3.33081 12.0772 3.6274 12.015 3.98103 11.7605L6.99825 9.56108L10.0212 11.7605C10.3748 12.015 10.6657 12.0772 10.9052 11.8962C11.1391 11.7209 11.1904 11.4326 11.0478 11.0198L9.85576 7.50299L12.9015 5.33182C13.2551 5.08304 13.3977 4.82295 13.3065 4.54024C13.2152 4.26885 12.9471 4.13315 12.5079 4.1388L8.77207 4.16142L7.63705 0.627605C7.50016 0.209202 7.29483 0 6.99825 0C6.70736 0 6.50203 0.209202 6.36514 0.627605L5.23012 4.16142L1.49425 4.1388C1.05507 4.13315 0.786996 4.26885 0.695738 4.54024C0.598776 4.82295 0.747071 5.08304 1.1007 5.33182L4.14643 7.50299L2.95437 11.0198C2.81178 11.4326 2.86312 11.7209 3.09696 11.8962Z" fill="#DBBB92"/>
</svg>
